<?xml version="1.0" standalone="no"?>
<!DOCTYPE svg PUBLIC "-//W3C//DTD SVG 20010904//EN"
 "http://www.w3.org/TR/2001/REC-SVG-20010904/DTD/svg10.dtd">
<svg version="1.0" xmlns="http://www.w3.org/2000/svg"
 width="7730.000000pt" height="7730.000000pt" viewBox="0 0 7730.000000 7730.000000"
 preserveAspectRatio="xMidYMid meet">
<metadata>
Created by potrace 1.16, written by Peter Selinger 2001-2019
</metadata>
<g transform="translate(0.000000,7730.000000) scale(0.100000,-0.100000)"
fill="#000000" stroke="none">
<path d="M29745 63614 c-771 -11 -1630 -32 -2220 -54 -1045 -40 -2377 -128
-2660 -176 -576 -98 -1128 -402 -1511 -832 -364 -409 -576 -866 -661 -1427
-24 -160 -35 -4623 -28 -11495 5 -5632 12 -7912 35 -11868 18 -3086 53 -7070
80 -9042 5 -404 14 -1086 20 -1515 13 -1019 28 -2053 35 -2435 3 -168 10 -570
15 -895 47 -2810 116 -5656 185 -7625 48 -1368 114 -2830 136 -3010 41 -343
182 -691 396 -978 71 -95 243 -274 339 -353 289 -236 653 -394 1024 -444 218
-29 3315 -54 7755 -62 9049 -16 15973 107 20865 372 1323 72 1507 91 1859 190
370 104 779 301 1077 520 53 38 62 42 66 27 4 -14 31 -25 104 -45 140 -37 285
-65 384 -74 155 -14 476 -8 579 11 103 19 266 68 294 88 15 11 20 57 37 378
142 2645 188 5579 120 7510 -29 825 -78 1548 -142 2095 -19 162 -33 336 -35
435 l-3 165 46 -50 c378 -411 994 -1373 1636 -2555 956 -1758 2147 -4314 3299
-7078 l114 -274 115 7 c371 21 781 97 997 185 120 49 209 108 205 135 -5 29
-281 898 -487 1535 -327 1012 -908 2745 -1249 3726 -387 1117 -913 2576 -1182
3278 -29 77 -51 142 -49 145 3 2 976 -299 2162 -669 1187 -371 2192 -683 2233
-694 64 -16 107 -19 290 -20 203 0 220 2 312 27 232 64 399 160 569 327 163
160 233 272 370 592 145 338 258 755 318 1173 79 546 92 1263 27 1500 -82 301
-293 556 -570 690 -64 31 -247 91 -621 205 -291 88 -1927 582 -3634 1098
l-3104 939 -50 -19 c-107 -41 -266 -30 -442 30 -76 26 -86 27 -195 20 -172
-11 -414 -36 -605 -64 -153 -22 -247 -40 -550 -104 -215 -46 -468 -7 -555 86
l-25 25 55 52 c30 29 104 97 165 152 188 172 396 367 393 370 -2 3 -3871 1172
-4213 1273 -38 12 -367 111 -730 222 -670 203 -2176 658 -2695 814 -157 47
-618 186 -1025 310 -668 202 -969 293 -1995 603 -173 52 -409 123 -525 158
-115 35 -858 260 -1650 499 -792 240 -2412 730 -3600 1089 -1188 360 -2162
653 -2163 651 -2 -1 2 -62 10 -136 20 -207 18 -820 -5 -1028 -90 -814 -353
-1575 -785 -2270 -127 -204 -329 -477 -434 -586 -35 -37 -38 -43 -22 -47 106
-32 4700 -1464 10769 -3359 3303 -1031 3963 -1236 5580 -1739 446 -138 812
-253 814 -255 3 -3 -8 -522 -54 -2459 -44 -1849 -54 -2174 -70 -2310 -98 -830
-540 -1566 -1213 -2015 -300 -200 -640 -338 -987 -400 -189 -34 -1090 -123
-1855 -185 -3661 -292 -8493 -406 -14650 -345 -935 10 -2001 24 -2520 35 -135
2 -369 7 -520 10 -151 3 -363 7 -470 10 -107 3 -330 7 -495 10 -165 3 -381 7
-480 10 -182 5 -411 10 -855 20 -135 3 -306 8 -380 10 -74 2 -245 7 -380 10
-135 3 -301 8 -370 10 -69 2 -222 7 -340 10 -238 6 -480 13 -700 20 -80 3
-219 7 -310 10 -91 3 -226 7 -300 10 -74 3 -209 7 -300 10 -172 6 -325 11
-595 20 -329 12 -527 43 -761 120 -874 287 -1517 1085 -1643 2037 -33 249
-110 1916 -156 3393 -111 3585 -158 7789 -157 14285 0 6166 40 11738 137
19340 41 3149 40 3123 101 3400 75 341 262 731 474 990 79 97 233 252 335 338
250 210 603 386 925 461 126 29 283 48 590 71 936 69 1882 107 3245 131 748
13 3597 7 4410 -10 1365 -29 2408 -56 3339 -86 252 -9 461 -14 463 -11 5 4
-42 232 -192 944 -30 144 -55 273 -55 285 0 121 131 232 249 213 44 -7 44 -7
871 -406 1027 -496 1074 -518 1143 -539 199 -61 432 -45 620 42 40 18 189 101
332 184 235 136 643 368 1295 739 155 88 250 136 278 140 66 10 129 -12 183
-66 81 -81 83 -28 -38 -927 -59 -436 -105 -794 -102 -797 2 -2 108 -9 234 -15
2671 -130 5243 -275 7900 -446 1249 -81 1559 -103 1665 -121 994 -163 1813
-898 2115 -1898 71 -238 105 -460 125 -821 6 -110 12 -236 15 -280 2 -44 7
-134 10 -200 3 -66 8 -158 10 -205 3 -47 12 -254 20 -460 8 -206 17 -431 20
-500 8 -214 15 -389 20 -565 3 -93 7 -233 10 -310 9 -257 27 -952 40 -1570 3
-137 8 -329 10 -425 3 -96 5 -267 6 -380 1 -113 4 -208 6 -212 2 -5 44 12 92
37 105 54 141 57 182 16 22 -23 29 -39 29 -70 0 -22 -39 -258 -86 -523 -99
-560 -100 -577 -40 -704 34 -71 55 -94 416 -451 l380 -375 0 -43 c0 -45 -26
-89 -58 -99 -14 -5 -854 -126 -872 -126 -3 0 -5 -1581 -5 -3512 0 -4020 -6
-5249 -41 -8357 l-7 -604 34 7 c75 15 447 57 664 76 375 32 719 43 1138 37
l387 -5 0 107 c0 58 -4 279 -10 491 -5 212 -17 662 -25 1000 -8 338 -17 696
-20 795 -3 99 -12 434 -20 745 -15 561 -30 1074 -40 1410 -3 96 -17 540 -30
985 -23 753 -47 1481 -60 1825 -3 80 -14 397 -25 705 -191 5394 -466 10121
-775 13335 -101 1042 -123 1199 -211 1470 -144 448 -365 811 -694 1141 -420
421 -935 686 -1533 790 -243 42 -3880 307 -6567 478 -519 34 -961 61 -2035
126 -49 3 -162 10 -250 15 -937 59 -3337 185 -4760 250 -2595 118 -4598 184
-7070 231 -504 9 -3356 19 -3800 13z m16457 -33450 c5196 -1559 12294 -3690
18543 -5565 1007 -302 1849 -556 1871 -564 73 -27 83 -99 20 -140 -23 -15 -29
-15 -83 0 -46 13 -17754 5325 -24918 7475 -808 242 -1479 447 -1491 455 -25
16 -34 52 -22 86 12 32 36 49 70 49 15 0 2720 -808 6010 -1796z m-262 -1619
c3347 -1005 8632 -2591 11745 -3525 3113 -935 6319 -1897 7125 -2139 1007
-303 1468 -445 1477 -457 20 -28 16 -81 -8 -105 -17 -17 -30 -20 -63 -16 -34
4 -6562 1961 -24756 7421 -926 278 -1690 512 -1697 519 -7 7 -15 27 -19 44 -5
27 -1 37 25 64 25 24 38 30 59 26 15 -3 2765 -827 6112 -1832z"/>
<path d="M51177 41954 c-329 -59 -560 -292 -631 -636 -56 -271 -5 -616 115
-783 94 -130 322 -203 550 -175 227 27 414 85 625 194 169 88 219 100 364 94
125 -6 270 -50 413 -126 98 -51 141 -92 157 -149 5 -21 51 -346 101 -723 64
-488 89 -701 85 -741 -12 -121 -88 -270 -166 -324 -45 -31 -118 -55 -170 -55
-21 0 -80 11 -131 25 -396 105 -508 127 -664 127 -176 1 -265 -35 -306 -127
-27 -58 -24 -86 27 -314 83 -368 245 -918 314 -1065 49 -103 139 -134 274 -96
307 88 716 242 984 370 310 150 393 208 408 287 4 21 2 196 -5 388 -6 193 -14
521 -17 730 -4 331 -8 395 -26 495 -29 153 -31 378 -5 462 33 108 113 181 244
224 84 28 221 26 287 -4 27 -12 52 -22 56 -22 4 0 22 14 39 32 72 73 114 324
76 453 -30 106 -113 208 -216 268 -24 14 -81 40 -126 57 -64 25 -91 41 -118
72 -54 64 -57 112 -16 262 27 101 28 231 3 313 -40 128 -131 226 -273 296
-130 64 -201 81 -334 81 -93 -1 -122 -5 -189 -28 -105 -36 -193 -89 -294 -178
-130 -114 -126 -111 -190 -116 -48 -3 -69 1 -114 22 -68 32 -105 33 -166 2
-130 -66 -222 -33 -297 105 -55 102 -171 219 -257 259 -123 58 -256 72 -411
44z"/>
<path d="M30728 34070 c-63 -33 -92 -82 -96 -159 -2 -54 1 -73 20 -106 25 -43
53 -61 593 -380 138 -82 381 -226 540 -320 253 -150 965 -572 1877 -1111 152
-90 281 -164 287 -164 10 0 104 147 198 310 221 385 370 792 428 1177 20 129
38 406 31 458 l-7 41 -1197 88 c-658 48 -1498 110 -1866 137 -367 27 -691 49
-720 49 -31 -1 -66 -9 -88 -20z"/>
<path d="M64265 12663 c0 -135 -51 -205 -203 -275 -129 -60 -241 -89 -364 -95
-102 -6 -110 -4 -163 21 -68 34 -98 72 -130 166 -14 40 -27 75 -30 78 -11 11
-64 -125 -76 -191 -15 -91 -7 -178 31 -347 131 -579 317 -1061 539 -1396 94
-143 173 -220 274 -268 125 -60 181 -70 372 -71 226 0 339 16 503 71 111 37
166 70 227 136 103 111 111 203 40 458 -229 827 -515 1407 -819 1667 -60 52
-171 123 -191 123 -6 0 -10 -31 -10 -77z"/>
<path d="M56620 11721 c-1032 -344 -1740 -732 -2032 -1114 -98 -128 -109 -185
-47 -246 35 -36 48 -38 314 -51 856 -42 2018 -38 2935 10 188 10 208 13 247
35 28 17 48 39 63 71 22 44 23 54 17 218 -8 242 -42 423 -122 657 -38 109
-161 367 -218 457 l-34 54 -6 -52 c-8 -63 -38 -125 -80 -162 -50 -45 -117 -61
-252 -61 -262 1 -410 75 -452 225 -9 32 -21 58 -27 58 -6 -1 -144 -45 -306
-99z"/>
</g>
</svg>
